<svg width="24" height="24" viewBox="0 0 24 24" fill="none" xmlns="http://www.w3.org/2000/svg">
<path d="M1.96094 4.90313C1.96094 4.38297 2.16757 3.88412 2.53537 3.51632C2.90318 3.14851 3.40203 2.94188 3.92219 2.94188H9.80594V20.5931H3.92219C3.40203 20.5931 2.90318 20.3865 2.53537 20.0187C2.16757 19.6509 1.96094 19.152 1.96094 18.6319L1.96094 4.90313ZM13.7284 2.94188L19.6122 2.94188C20.1324 2.94188 20.6312 3.14851 20.999 3.51632C21.3668 3.88412 21.5735 4.38297 21.5735 4.90313V9.80626H13.7284V2.94188ZM13.7284 13.7288H21.5735V18.6319C21.5735 19.152 21.3668 19.6509 20.999 20.0187C20.6312 20.3865 20.1324 20.5931 19.6122 20.5931H13.7284V13.7288Z" stroke="#0000AC" stroke-width="2.45156" stroke-linecap="round" stroke-linejoin="round"/>
</svg>
