<svg width="24" height="18" viewBox="0 0 24 18" fill="none" xmlns="http://www.w3.org/2000/svg">
<path d="M22.0641 17.6513C22.0641 17.6513 23.535 17.6513 23.535 16.1803C23.535 14.7094 22.0641 10.2966 16.1803 10.2966C10.2966 10.2966 8.82563 14.7094 8.82563 16.1803C8.82563 17.6513 10.2966 17.6513 10.2966 17.6513H22.0641ZM10.3289 16.1803C10.3181 16.1788 10.3073 16.1769 10.2966 16.1744C10.298 15.7861 10.5422 14.6594 11.4145 13.6444C12.2264 12.6927 13.6533 11.7675 16.1803 11.7675C18.7059 11.7675 20.1327 12.6942 20.9462 13.6444C21.8184 14.6594 22.0611 15.7876 22.0641 16.1744L22.0523 16.1774C22.0455 16.1785 22.0386 16.1795 22.0317 16.1803H10.3289ZM16.1803 7.35469C16.9606 7.35469 17.7088 7.04475 18.2605 6.49304C18.8123 5.94133 19.1222 5.19305 19.1222 4.41282C19.1222 3.63258 18.8123 2.8843 18.2605 2.33259C17.7088 1.78089 16.9606 1.47094 16.1803 1.47094C15.4001 1.47094 14.6518 1.78089 14.1001 2.33259C13.5484 2.8843 13.2384 3.63258 13.2384 4.41282C13.2384 5.19305 13.5484 5.94133 14.1001 6.49304C14.6518 7.04475 15.4001 7.35469 16.1803 7.35469ZM20.5931 4.41282C20.5931 4.99231 20.479 5.56614 20.2572 6.10153C20.0355 6.63691 19.7104 7.12338 19.3007 7.53315C18.8909 7.94291 18.4044 8.26796 17.869 8.48973C17.3336 8.71149 16.7598 8.82563 16.1803 8.82563C15.6008 8.82563 15.027 8.71149 14.4916 8.48973C13.9562 8.26796 13.4698 7.94291 13.06 7.53315C12.6502 7.12338 12.3252 6.63691 12.1034 6.10153C11.8816 5.56614 11.7675 4.99231 11.7675 4.41282C11.7675 3.24246 12.2324 2.12005 13.06 1.29248C13.8876 0.46492 15.01 0 16.1803 0C17.3507 0 18.4731 0.46492 19.3007 1.29248C20.1282 2.12005 20.5931 3.24246 20.5931 4.41282ZM10.2024 10.7084C9.61403 10.5231 9.00749 10.4014 8.39318 10.3451C8.04799 10.3123 7.70143 10.2961 7.35469 10.2966C1.47094 10.2966 0 14.7094 0 16.1803C0 17.1614 0.489823 17.6513 1.47094 17.6513H7.67242C7.45436 17.1921 7.34561 16.6886 7.35469 16.1803C7.35469 14.6947 7.90924 13.1767 8.95802 11.9087C9.31545 11.4763 9.73173 11.0718 10.2024 10.7084ZM7.23702 11.7675C6.36645 13.0756 5.89617 14.6091 5.88375 16.1803H1.47094C1.47094 15.7979 1.71217 14.6653 2.58885 13.6444C3.39051 12.7089 4.78349 11.7969 7.23702 11.769V11.7675ZM2.20641 5.14828C2.20641 3.97793 2.67133 2.85552 3.49889 2.02795C4.32646 1.20039 5.44887 0.735469 6.61922 0.735469C7.78958 0.735469 8.91199 1.20039 9.73956 2.02795C10.5671 2.85552 11.032 3.97793 11.032 5.14828C11.032 6.31864 10.5671 7.44105 9.73956 8.26862C8.91199 9.09618 7.78958 9.5611 6.61922 9.5611C5.44887 9.5611 4.32646 9.09618 3.49889 8.26862C2.67133 7.44105 2.20641 6.31864 2.20641 5.14828ZM6.61922 2.20641C5.83899 2.20641 5.09071 2.51635 4.539 3.06806C3.98729 3.61977 3.67735 4.36805 3.67735 5.14828C3.67735 5.92852 3.98729 6.6768 4.539 7.22851C5.09071 7.78022 5.83899 8.09016 6.61922 8.09016C7.39946 8.09016 8.14774 7.78022 8.69944 7.22851C9.25115 6.6768 9.5611 5.92852 9.5611 5.14828C9.5611 4.36805 9.25115 3.61977 8.69944 3.06806C8.14774 2.51635 7.39946 2.20641 6.61922 2.20641Z" fill="#828282"/>
</svg>
