<svg width="24" height="24" viewBox="0 0 24 24" fill="none" xmlns="http://www.w3.org/2000/svg">
<path d="M21.2547 14.3807L19.7493 13.0937C19.8205 12.657 19.8573 12.2111 19.8573 11.7652C19.8573 11.3193 19.8205 10.8735 19.7493 10.4368L21.2547 9.14971C21.3683 9.0525 21.4495 8.92303 21.4877 8.77852C21.5259 8.63401 21.5192 8.48129 21.4684 8.34069L21.4478 8.28093C21.0333 7.12263 20.4127 6.04886 19.616 5.11152L19.5746 5.06325C19.478 4.94961 19.3491 4.86791 19.2051 4.82893C19.0611 4.78996 18.9087 4.79553 18.7679 4.84491L16.8993 5.50913C16.2098 4.94374 15.4399 4.49786 14.6079 4.18529L14.2471 2.2317C14.2198 2.0847 14.1485 1.94947 14.0426 1.84396C13.9367 1.73846 13.8012 1.66768 13.6541 1.64102L13.592 1.62953C12.3946 1.41349 11.1351 1.41349 9.93767 1.62953L9.87561 1.64102C9.72851 1.66768 9.593 1.73846 9.48709 1.84396C9.38117 1.94947 9.30986 2.0847 9.28264 2.2317L8.9195 4.19448C8.09414 4.50712 7.32553 4.95276 6.64414 5.51373L4.7618 4.84491C4.62107 4.79513 4.46851 4.78936 4.32442 4.82836C4.18032 4.86736 4.0515 4.94929 3.95508 5.06325L3.91371 5.11152C3.11791 6.04953 2.49742 7.12311 2.08194 8.28093L2.06125 8.34069C1.95783 8.62798 2.04286 8.94975 2.275 9.14971L3.7988 10.4506C3.72755 10.8827 3.69307 11.3239 3.69307 11.7629C3.69307 12.2042 3.72755 12.6455 3.7988 13.0753L2.275 14.3761C2.16145 14.4733 2.08018 14.6028 2.042 14.7473C2.00382 14.8918 2.01053 15.0445 2.06125 15.1852L2.08194 15.2449C2.49794 16.4033 3.11389 17.472 3.91371 18.4143L3.95508 18.4626C4.05174 18.5762 4.18056 18.6579 4.32457 18.6969C4.46858 18.7359 4.62102 18.7303 4.7618 18.6809L6.64414 18.0121C7.32905 18.5752 8.0944 19.0211 8.9195 19.3314L9.28264 21.2941C9.30986 21.4411 9.38117 21.5764 9.48709 21.6819C9.593 21.7874 9.72851 21.8582 9.87561 21.8848L9.93767 21.8963C11.1461 22.1135 12.3836 22.1135 13.592 21.8963L13.6541 21.8848C13.8012 21.8582 13.9367 21.7874 14.0426 21.6819C14.1485 21.5764 14.2198 21.4411 14.2471 21.2941L14.6079 19.3406C15.4396 19.0288 16.2139 18.5815 16.8993 18.0167L18.7679 18.6809C18.9086 18.7307 19.0612 18.7365 19.2053 18.6975C19.3494 18.6585 19.4782 18.5766 19.5746 18.4626L19.616 18.4143C20.4158 17.4697 21.0318 16.4033 21.4478 15.2449L21.4684 15.1852C21.5719 14.9025 21.4868 14.5807 21.2547 14.3807ZM18.1175 10.708C18.1749 11.055 18.2048 11.4113 18.2048 11.7675C18.2048 12.1238 18.1749 12.48 18.1175 12.8271L17.9658 13.7487L19.6826 15.2173C19.4224 15.8169 19.0938 16.3845 18.7035 16.9089L16.5707 16.1528L15.849 16.7457C15.2997 17.1962 14.6883 17.5501 14.0264 17.7984L13.1507 18.127L12.7393 20.3564C12.0902 20.43 11.4349 20.43 10.7858 20.3564L10.3744 18.1224L9.50558 17.7892C8.85055 17.541 8.24149 17.187 7.69678 16.7388L6.97511 16.1436L4.82845 16.9066C4.43774 16.3803 4.11137 15.8126 3.84936 15.215L5.58461 13.7326L5.43522 12.8133C5.38006 12.4708 5.35018 12.1169 5.35018 11.7675C5.35018 11.4159 5.37776 11.0642 5.43522 10.7218L5.58461 9.80243L3.84936 8.32C4.10907 7.72014 4.43774 7.15474 4.82845 6.62842L6.97511 7.39147L7.69678 6.7962C8.24149 6.34803 8.85055 5.99408 9.50558 5.74586L10.3767 5.4172L10.7881 3.18321C11.4339 3.10966 12.0935 3.10966 12.7416 3.18321L13.153 5.4126L14.0287 5.74126C14.6883 5.98949 15.302 6.34343 15.8513 6.79391L16.573 7.38688L18.7058 6.63072C19.0966 7.15704 19.4229 7.72473 19.6849 8.3223L17.9681 9.79094L18.1175 10.708ZM11.7671 7.4926C9.53316 7.4926 7.72207 9.30369 7.72207 11.5377C7.72207 13.7717 9.53316 15.5828 11.7671 15.5828C14.0011 15.5828 15.8122 13.7717 15.8122 11.5377C15.8122 9.30369 14.0011 7.4926 11.7671 7.4926ZM13.5874 13.358C13.3487 13.5974 13.065 13.7873 12.7526 13.9166C12.4402 14.046 12.1053 14.1124 11.7671 14.1118C11.0799 14.1118 10.4341 13.8429 9.94686 13.358C9.70743 13.1192 9.51756 12.8355 9.38819 12.5231C9.25881 12.2107 9.19248 11.8758 9.193 11.5377C9.193 10.8505 9.46191 10.2046 9.94686 9.7174C10.4341 9.23015 11.0799 8.96354 11.7671 8.96354C12.4544 8.96354 13.1002 9.23015 13.5874 9.7174C13.8269 9.95614 14.0167 10.2399 14.1461 10.5523C14.2755 10.8647 14.3418 11.1996 14.3413 11.5377C14.3413 12.2249 14.0724 12.8707 13.5874 13.358Z" fill="#828282"/>
</svg>
