<svg width="24" height="24" viewBox="0 0 24 24" fill="none" xmlns="http://www.w3.org/2000/svg">
<path d="M18.6316 3.92251H16.6703V2.94188C16.6703 2.68181 16.567 2.43238 16.3831 2.24848C16.1992 2.06457 15.9498 1.96126 15.6897 1.96126C15.4296 1.96126 15.1802 2.06457 14.9963 2.24848C14.8124 2.43238 14.7091 2.68181 14.7091 2.94188V3.92251H8.82532V2.94188C8.82532 2.68181 8.722 2.43238 8.5381 2.24848C8.3542 2.06457 8.10477 1.96126 7.84469 1.96126C7.58461 1.96126 7.33519 2.06457 7.15128 2.24848C6.96738 2.43238 6.86407 2.68181 6.86407 2.94188V3.92251H4.90281C4.12258 3.92251 3.3743 4.23246 2.82259 4.78417C2.27088 5.33587 1.96094 6.08415 1.96094 6.86439L1.96094 18.6319C1.96094 19.4121 2.27088 20.1604 2.82259 20.7121C3.3743 21.2638 4.12258 21.5738 4.90281 21.5738H18.6316C19.4118 21.5738 20.1601 21.2638 20.7118 20.7121C21.2635 20.1604 21.5735 19.4121 21.5735 18.6319V6.86439C21.5735 6.08415 21.2635 5.33587 20.7118 4.78417C20.1601 4.23246 19.4118 3.92251 18.6316 3.92251ZM19.6122 18.6319C19.6122 18.892 19.5089 19.1414 19.325 19.3253C19.1411 19.5092 18.8917 19.6125 18.6316 19.6125H4.90281C4.64274 19.6125 4.39331 19.5092 4.20941 19.3253C4.0255 19.1414 3.92219 18.892 3.92219 18.6319V11.7675H19.6122V18.6319ZM19.6122 9.80626H3.92219V6.86439C3.92219 6.60431 4.0255 6.35488 4.20941 6.17098C4.39331 5.98708 4.64274 5.88376 4.90281 5.88376H6.86407V6.86439C6.86407 7.12446 6.96738 7.37389 7.15128 7.55779C7.33519 7.7417 7.58461 7.84501 7.84469 7.84501C8.10477 7.84501 8.3542 7.7417 8.5381 7.55779C8.722 7.37389 8.82532 7.12446 8.82532 6.86439V5.88376H14.7091V6.86439C14.7091 7.12446 14.8124 7.37389 14.9963 7.55779C15.1802 7.7417 15.4296 7.84501 15.6897 7.84501C15.9498 7.84501 16.1992 7.7417 16.3831 7.55779C16.567 7.37389 16.6703 7.12446 16.6703 6.86439V5.88376H18.6316C18.8917 5.88376 19.1411 5.98708 19.325 6.17098C19.5089 6.35488 19.6122 6.60431 19.6122 6.86439V9.80626Z" fill="#828282"/>
</svg>
