<svg width="24" height="24" viewBox="0 0 24 24" fill="none" xmlns="http://www.w3.org/2000/svg">
<g clip-path="url(#clip0_3161_534)">
<path d="M10.7866 23.133V19.6027C5.87363 19.3477 1.96094 15.2683 1.96094 10.2966C1.96094 5.15809 6.1384 0.980621 11.2769 0.980621C16.4154 0.980621 20.5928 5.15809 20.5928 10.2966C20.5928 15.1507 17.2195 20.0342 12.1889 22.4563L10.7866 23.133ZM11.2769 2.94187C7.21709 2.94187 3.92219 6.23678 3.92219 10.2966C3.92219 14.3564 7.21709 17.6513 11.2769 17.6513H12.7478V19.9067C16.3173 17.6513 18.6316 13.9445 18.6316 10.2966C18.6316 6.23678 15.3367 2.94187 11.2769 2.94187ZM10.2963 14.2191H12.2575V16.1803H10.2963V14.2191ZM12.2575 12.7481H10.2963C10.2963 9.5611 13.2381 9.80625 13.2381 7.845C13.2381 6.76631 12.3556 5.88375 11.2769 5.88375C10.1982 5.88375 9.31563 6.76631 9.31563 7.845H7.35438C7.35438 5.67782 9.1097 3.9225 11.2769 3.9225C13.4441 3.9225 15.1994 5.67782 15.1994 7.845C15.1994 10.2966 12.2575 10.5417 12.2575 12.7481Z" fill="#828282"/>
</g>
<defs>
<clipPath id="clip0_3161_534">
<rect width="23.535" height="23.535" fill="white"/>
</clipPath>
</defs>
</svg>
