<svg width="24" height="24" viewBox="0 0 24 24" fill="none" xmlns="http://www.w3.org/2000/svg">
<path d="M4.90266 21.5738H18.6314C19.713 21.5738 20.5927 20.6941 20.5927 19.6125V4.90313C20.5927 3.8215 19.713 2.94188 18.6314 2.94188H16.6702C16.6702 2.6818 16.5669 2.43237 16.3829 2.24847C16.199 2.06457 15.9496 1.96125 15.6895 1.96125L7.84453 1.96125C7.58446 1.96125 7.33503 2.06457 7.15113 2.24847C6.96722 2.43237 6.86391 2.6818 6.86391 2.94188H4.90266C3.82103 2.94188 2.94141 3.8215 2.94141 4.90313L2.94141 19.6125C2.94141 20.6941 3.82103 21.5738 4.90266 21.5738ZM4.90266 4.90313H6.86391V6.86438H16.6702V4.90313H18.6314V19.6125H4.90266V4.90313Z" fill="#828282"/>
<path d="M10.7865 13.3228L9.02821 11.5645L7.6416 12.9511L10.7865 16.096L15.8926 10.9899L14.506 9.60327L10.7865 13.3228Z" fill="#828282"/>
</svg>
